<?xml version="1.0" standalone="no"?>
<!DOCTYPE svg PUBLIC "-//W3C//DTD SVG 20010904//EN"
 "http://www.w3.org/TR/2001/REC-SVG-20010904/DTD/svg10.dtd">
<svg version="1.0" xmlns="http://www.w3.org/2000/svg"
 width="200.000000pt" height="200.000000pt" viewBox="0 0 200.000000 200.000000"
 preserveAspectRatio="xMidYMid meet">

<g transform="translate(0.000000,200.000000) scale(0.100000,-0.100000)"
fill="#000000" stroke="none">
<path d="M654 1666 c-32 -32 -34 -38 -34 -100 l0 -66 -66 0 c-62 0 -68 -2
-100 -34 l-34 -34 0 -512 0 -512 34 -34 34 -34 412 0 412 0 34 34 c32 32 34
38 34 100 l0 66 66 0 c62 0 68 2 100 34 l34 34 0 512 0 512 -34 34 -34 34
-412 0 -412 0 -34 -34z m841 -546 l0 -495 -57 -3 -58 -3 0 407 0 406 -34 34
-34 34 -306 0 -306 0 0 53 c0 30 3 57 7 60 4 4 182 6 397 5 l391 -3 0 -495z
m-200 -200 l0 -495 -395 0 -395 0 -3 485 c-1 267 0 491 3 498 3 10 88 12 397
10 l393 -3 0 -495z"/>
</g>
</svg>
